# xmcd
#
# Track frame offsets: 
#        150
#        16551
#        37508
#        56023
#        77146
#        93715
#        112171
#        128287
#        146339
#        162484
#        181120
#        198861
#        215451
#        233053
#        251830
#        267023
#        284740
#        301712
#        320428
#        340854
#
# Disc length: 4739 seconds
#
# Revision: 0
# Processed by: cddbd v1.5.2PL0 Copyright (c) Steve Scherf et al.
# Submitted via: ExactAudioCopyFreeDBPlugin 1.0
#
DISCID=0b128114
DTITLE=10 Tubes salsa - Salsa de Colombia
DYEAR=2010
DGENRE=Salsa
TTITLE0=Yuri Buenaventura - Salsa Dura
TTITLE1=La sonora Carruseles - La Comay
TTITLE2=Fruko - El Preso
TTITLE3=Joe Arroyo - La Rebelion
TTITLE4=La Nueva Edicion - Salsa Sin Frontera
TTITLE5=La sonora Crruseles - Quinto Y Trompeta
TTITLE6=Los Nemus - El Mundo Y El Nino
TTITLE7=Fruko Y Sus Testos - Negro Candela
TTITLE8=Los Titanes - No La Dejes Sola
TTITLE9=La Sonora Carruseles - Ave Maria Lola
TTITLE10=The Latin Brothes - La Calenas Son Como Las Flores
TTITLE11=Yuri Buenaventura - Marruecos
TTITLE12=Fruko Y Sus Testos - Pachanga Con La Playa
TTITLE13=La Sonora Carruseles - Micaela
TTITLE14=Joe Arroyo - En Barranquilla Me Quedo
TTITLE15=Los Nemus - Los Abuelos
TTITLE16=La Sonora Carruseles - Que Suene Mi Campana
TTITLE17=Fruko Y Sus Testos - Manyoma
TTITLE18=Grupo Caneo - Duele
TTITLE19=Joe Arroyo Y La Verdad - Me Le Fugué A La Candela
EXTD=
EXTT0=
EXTT1=
EXTT2=
EXTT3=
EXTT4=
EXTT5=
EXTT6=
EXTT7=
EXTT8=
EXTT9=
EXTT10=
EXTT11=
EXTT12=
EXTT13=
EXTT14=
EXTT15=
EXTT16=
EXTT17=
EXTT18=
EXTT19=
PLAYORDER=
